<svg width="915" height="559" viewBox="0 0 915 559" fill="none" xmlns="http://www.w3.org/2000/svg">
<g clip-path="url(#clip0_123_3055)">
<path d="M469.394 418.754L149.522 501.123C138.672 503.904 127.161 502.268 117.516 496.573C107.871 490.878 100.878 481.589 98.0727 470.745L1.34077 95.0827C-1.44015 84.2323 0.196416 72.7219 5.89142 63.0766C11.5864 53.4313 20.8748 46.4389 31.7188 43.6332L329.307 -32.9985L405.47 1.09831L499.772 367.303C502.553 378.153 500.917 389.664 495.221 399.31C489.526 408.955 480.238 415.948 469.394 418.754Z" fill="#F2F2F2"/>
<path d="M34.7471 55.4112C27.0248 57.409 20.4102 62.3884 16.3546 69.257C12.299 76.1255 11.1335 84.3223 13.1137 92.0491L109.852 467.713C111.85 475.435 116.829 482.05 123.697 486.105C130.566 490.161 138.763 491.327 146.49 489.346L466.361 406.978C474.083 404.98 480.698 400 484.753 393.132C488.809 386.263 489.975 378.067 487.994 370.34L395.153 9.80623L328.216 -20.1602L34.7471 55.4112Z" fill="white"/>
<path d="M404.657 36.0398L355.152 48.7879C351.538 49.7184 347.703 49.1752 344.489 47.2777C341.276 45.3802 338.948 42.284 338.017 38.67L328.602 2.10665C328.561 1.94666 328.566 1.77836 328.616 1.62102C328.666 1.46368 328.76 1.32365 328.886 1.21696C329.012 1.11027 329.165 1.04123 329.329 1.01774C329.492 0.994243 329.659 1.01723 329.81 1.0841L404.795 34.3844C404.962 34.4586 405.101 34.5829 405.194 34.74C405.287 34.8971 405.329 35.0792 405.314 35.2611C405.299 35.4431 405.227 35.6157 405.11 35.7552C404.992 35.8948 404.834 35.9942 404.657 36.0398Z" fill="#F2F2F2"/>
<path d="M378.612 323.845L232.979 361.35C231.176 361.803 229.267 361.525 227.669 360.575C226.071 359.625 224.913 358.081 224.45 356.281C223.986 354.481 224.254 352.57 225.195 350.967C226.136 349.363 227.673 348.197 229.47 347.723L375.103 310.218C376 309.982 376.935 309.925 377.853 310.051C378.772 310.177 379.656 310.484 380.456 310.953C381.256 311.422 381.955 312.045 382.514 312.785C383.072 313.526 383.478 314.369 383.709 315.267C383.941 316.165 383.992 317.1 383.861 318.018C383.73 318.936 383.418 319.819 382.944 320.616C382.471 321.413 381.844 322.109 381.1 322.663C380.357 323.217 379.511 323.618 378.612 323.845Z" fill="#CCCCCC"/>
<path d="M412.637 339.602L238.9 384.342C238.003 384.578 237.068 384.635 236.15 384.509C235.231 384.382 234.347 384.076 233.547 383.607C232.747 383.138 232.048 382.515 231.489 381.774C230.931 381.034 230.525 380.191 230.294 379.293C230.062 378.395 230.011 377.46 230.142 376.542C230.274 375.624 230.585 374.741 231.059 373.944C231.532 373.147 232.159 372.451 232.903 371.897C233.646 371.343 234.492 370.941 235.391 370.715L409.129 325.975C410.931 325.522 412.841 325.8 414.439 326.75C416.037 327.7 417.194 329.244 417.658 331.044C418.121 332.844 417.854 334.755 416.913 336.359C415.972 337.962 414.435 339.128 412.637 339.602Z" fill="#CCCCCC"/>
<path d="M173.543 406.515C187.277 406.515 198.41 395.382 198.41 381.648C198.41 367.914 187.277 356.781 173.543 356.781C159.809 356.781 148.676 367.914 148.676 381.648C148.676 395.382 159.809 406.515 173.543 406.515Z" fill="#5990B6"/>
<path d="M363.127 291.767L169.711 341.555C164.121 342.987 158.191 342.144 153.223 339.209C148.254 336.275 144.652 331.49 143.208 325.903L102.676 168.443C101.246 162.854 102.09 156.926 105.024 151.958C107.958 146.991 112.743 143.39 118.328 141.945L311.743 92.157C317.333 90.7247 323.263 91.5683 328.232 94.5026C333.2 97.437 336.802 102.222 338.246 107.809L378.779 265.269C380.21 270.858 379.365 276.787 376.431 281.754C373.497 286.722 368.712 290.322 363.127 291.767Z" fill="white"/>
<path d="M374.127 292.767L180.711 342.555C175.121 343.987 169.192 343.144 164.223 340.209C159.254 337.275 155.653 332.49 154.208 326.903L113.677 169.443C112.246 163.854 113.09 157.926 116.025 152.958C118.959 147.991 123.743 144.39 129.329 142.945L322.744 93.157C328.334 91.7247 334.263 92.5683 339.232 95.5026C344.201 98.437 347.802 103.222 349.247 108.809L389.779 266.269C391.21 271.858 390.366 277.787 387.432 282.754C384.498 287.722 379.713 291.322 374.127 292.767ZM129.967 145.42C125.038 146.696 120.817 149.875 118.229 154.259C115.641 158.642 114.898 163.874 116.162 168.805L156.694 326.265C157.97 331.194 161.149 335.415 165.533 338.003C169.917 340.591 175.148 341.334 180.08 340.07L373.491 290.287C378.419 289.011 382.64 285.833 385.228 281.449C387.816 277.065 388.56 271.833 387.296 266.902L346.767 109.442C345.491 104.514 342.312 100.292 337.928 97.7045C333.544 95.1166 328.313 94.373 323.382 95.637L129.967 145.42Z" fill="#E6E6E6"/>
<path d="M301.932 145.097L204.321 170.224C203.467 170.463 202.555 170.368 201.769 169.96C200.983 169.552 200.381 168.86 200.085 168.025C199.947 167.589 199.9 167.129 199.946 166.674C199.992 166.219 200.13 165.777 200.352 165.377C200.574 164.977 200.875 164.626 201.237 164.347C201.599 164.067 202.014 163.864 202.457 163.75L301.822 138.171C305.836 140.205 304.78 144.365 301.933 145.098L301.932 145.097Z" fill="#F2F2F2"/>
<path d="M315.08 164.35L166.104 202.698C165.25 202.936 164.339 202.842 163.552 202.433C162.766 202.025 162.164 201.334 161.868 200.499C161.73 200.063 161.683 199.603 161.729 199.147C161.775 198.692 161.913 198.251 162.135 197.851C162.357 197.451 162.658 197.1 163.02 196.82C163.382 196.54 163.798 196.337 164.241 196.223L314.97 157.423C318.985 159.457 317.927 163.617 315.08 164.35Z" fill="#F2F2F2"/>
<path d="M319.49 181.475L170.511 219.825C169.658 220.063 168.746 219.969 167.96 219.56C167.173 219.152 166.571 218.461 166.275 217.626C166.138 217.19 166.09 216.73 166.136 216.274C166.182 215.819 166.32 215.378 166.542 214.978C166.764 214.578 167.065 214.227 167.427 213.947C167.789 213.667 168.205 213.464 168.648 213.35L319.378 174.55C323.392 176.584 322.335 180.744 319.489 181.477L319.49 181.475Z" fill="#F2F2F2"/>
<path d="M323.894 198.593L174.917 236.942C174.064 237.18 173.152 237.085 172.366 236.677C171.58 236.269 170.978 235.578 170.682 234.743C170.544 234.306 170.496 233.846 170.542 233.391C170.588 232.936 170.726 232.495 170.948 232.095C171.17 231.694 171.472 231.344 171.834 231.064C172.196 230.784 172.611 230.581 173.054 230.467L323.783 191.667C327.797 193.701 326.74 197.86 323.894 198.593Z" fill="#F2F2F2"/>
<path d="M327.368 214.927L178.392 253.275C177.539 253.513 176.627 253.419 175.841 253.011C175.054 252.602 174.452 251.911 174.156 251.076C174.018 250.64 173.971 250.18 174.017 249.725C174.063 249.269 174.201 248.828 174.423 248.428C174.645 248.028 174.946 247.677 175.308 247.397C175.67 247.117 176.086 246.914 176.529 246.8L327.257 208C331.272 210.034 330.215 214.194 327.368 214.927Z" fill="#F2F2F2"/>
<path d="M174.376 392.364C173.835 392.505 173.262 392.465 172.745 392.252L172.714 392.239L165.939 389.366C165.625 389.233 165.341 389.039 165.102 388.795C164.863 388.552 164.674 388.264 164.547 387.948C164.419 387.631 164.355 387.293 164.359 386.952C164.362 386.611 164.432 386.274 164.566 385.96C164.699 385.646 164.893 385.361 165.136 385.122C165.38 384.883 165.668 384.695 165.984 384.567C166.301 384.44 166.639 384.376 166.98 384.379C167.321 384.382 167.658 384.453 167.972 384.586L172.362 386.453L178.113 372.921C178.383 372.288 178.893 371.787 179.531 371.53C180.17 371.272 180.884 371.279 181.518 371.548L181.484 371.636L181.519 371.547C182.153 371.817 182.653 372.327 182.911 372.966C183.168 373.605 183.162 374.319 182.892 374.953L176.126 390.863C175.969 391.23 175.729 391.555 175.426 391.815C175.123 392.074 174.764 392.26 174.377 392.358L174.376 392.364Z" fill="white"/>
<path d="M622.068 517.93C620.523 520.464 618.034 522.279 615.151 522.978C612.267 523.677 609.224 523.202 606.69 521.657L476.151 442.033C473.618 440.488 471.802 438 471.104 435.116C470.405 432.232 470.881 429.188 472.426 426.655C473.971 424.122 476.459 422.306 479.343 421.608C482.227 420.909 485.27 421.384 487.804 422.93L618.342 502.553C620.875 504.099 622.69 506.587 623.389 509.47C624.087 512.354 623.613 515.397 622.068 517.93Z" fill="#3F3D56"/>
<path d="M491.527 438.314C482.309 453.427 468.816 465.467 452.756 472.912C436.695 480.357 418.787 482.872 401.297 480.139C383.806 477.407 367.519 469.549 354.495 457.56C341.47 445.571 332.293 429.989 328.125 412.784C323.956 395.579 324.982 377.525 331.075 360.904C337.167 344.283 348.051 329.841 362.35 319.406C376.65 308.971 393.723 303.01 411.41 302.277C429.097 301.545 446.605 306.074 461.718 315.291C471.753 321.412 480.485 329.449 487.414 338.944C494.343 348.438 499.334 359.205 502.102 370.629C504.87 382.052 505.361 393.91 503.546 405.523C501.732 417.136 497.648 428.279 491.527 438.314ZM357.805 356.743C350.892 368.078 347.495 381.208 348.044 394.474C348.593 407.74 353.064 420.544 360.89 431.269C368.717 441.994 379.548 450.157 392.014 454.726C404.48 459.296 418.021 460.066 430.925 456.939C443.828 453.812 455.515 446.93 464.507 437.161C473.499 427.392 479.392 415.177 481.441 402.059C483.491 388.941 481.604 375.51 476.02 363.464C470.436 351.419 461.406 341.299 450.071 334.386C434.871 325.116 416.611 322.263 399.308 326.456C382.005 330.648 367.076 341.543 357.805 356.743Z" fill="#3F3D56"/>
<path d="M392.482 457.206C428.85 469.729 468.483 450.398 481.006 414.031C493.528 377.663 474.198 338.03 437.83 325.507C401.462 312.985 361.829 332.315 349.307 368.683C336.784 405.051 356.115 444.684 392.482 457.206Z" fill="white"/>
</g>
<defs>
<clipPath id="clip0_123_3055">
<rect width="915" height="558.64" fill="white"/>
</clipPath>
</defs>
</svg>
