<svg width="38" height="38" viewBox="0 0 38 38" fill="none" xmlns="http://www.w3.org/2000/svg">
<path d="M31.6666 20.5833C31.6666 24.0811 30.2489 27.2477 27.9567 29.5401L30.1959 31.7792C33.0611 28.9139 34.8333 24.9555 34.8333 20.5833C34.8333 11.8388 27.7444 4.75 19 4.75C10.2554 4.75 3.16663 11.8388 3.16663 20.5833C3.16663 24.9555 4.93883 28.9139 7.8041 31.7792L10.0433 29.5401C7.75106 27.2477 6.33329 24.0811 6.33329 20.5833C6.33329 13.5877 12.0043 7.91667 19 7.91667C25.9956 7.91667 31.6666 13.5877 31.6666 20.5833ZM24.2139 13.1305L17.0889 20.2556L19.328 22.4947L26.453 15.3697L24.2139 13.1305Z" fill="#B9A256"/>
</svg>
