<svg width="19" height="19" viewBox="0 0 19 19" fill="none" xmlns="http://www.w3.org/2000/svg">
<path d="M9.49992 3.16634C7.32398 3.16634 5.40311 4.2638 4.26259 5.93717H6.33325V7.52051H1.58325V2.77051H3.16659V4.74917C4.61043 2.82724 6.9093 1.58301 9.49992 1.58301C13.8721 1.58301 17.4166 5.12742 17.4166 9.49967H15.8333C15.8333 6.00187 12.9977 3.16634 9.49992 3.16634ZM3.16659 9.49967C3.16659 12.9975 6.00211 15.833 9.49992 15.833C11.6759 15.833 13.5967 14.7355 14.7373 13.0622H12.6666V11.4788H17.4166V16.2288H15.8333V14.2501C14.3894 16.1721 12.0906 17.4163 9.49992 17.4163C5.12766 17.4163 1.58325 13.8719 1.58325 9.49967H3.16659Z" fill="white"/>
</svg>
