<svg width="243" height="149" viewBox="0 0 243 149" fill="none" xmlns="http://www.w3.org/2000/svg">
<g clip-path="url(#clip0_20_352)">
<path d="M124.65 119.965L39.7063 141.839C36.8249 142.577 33.7683 142.143 31.2069 140.63C28.6456 139.118 26.7887 136.652 26.0436 133.772L0.355976 34.0126C-0.38251 31.1313 0.0520881 28.0746 1.56443 25.5133C3.07677 22.9519 5.54334 21.095 8.42303 20.35L87.4491 0L107.675 9.0546L132.717 106.302C133.455 109.184 133.021 112.24 131.509 114.802C129.996 117.363 127.53 119.22 124.65 119.965Z" fill="#F2F2F2"/>
<path d="M9.22723 23.4776C7.17653 24.0081 5.42 25.3304 4.34301 27.1544C3.26602 28.9783 2.95651 31.155 3.48237 33.2069L29.1717 132.966C29.7022 135.017 31.0245 136.774 32.8485 137.851C34.6724 138.928 36.8492 139.237 38.9011 138.711L123.845 116.838C125.895 116.307 127.652 114.985 128.729 113.161C129.806 111.337 130.115 109.16 129.589 107.108L104.935 11.3669L87.1594 3.40918L9.22723 23.4776Z" fill="white"/>
<path d="M107.459 9.57024L94.3131 12.9556C93.3534 13.2027 92.3348 13.0584 91.4814 12.5545C90.6281 12.0506 90.0099 11.2284 89.7627 10.2687L87.2624 0.55912C87.2515 0.516634 87.2528 0.471943 87.2662 0.43016C87.2795 0.388378 87.3043 0.351191 87.3378 0.322858C87.3713 0.294526 87.412 0.276194 87.4555 0.269955C87.4989 0.263715 87.5432 0.26982 87.5833 0.287578L107.496 9.13065C107.54 9.15036 107.577 9.18336 107.602 9.22508C107.627 9.2668 107.638 9.31516 107.634 9.36347C107.63 9.41178 107.611 9.45763 107.579 9.49468C107.548 9.53173 107.506 9.55814 107.459 9.57024Z" fill="#F2F2F2"/>
<path d="M100.543 94.7613L61.8696 104.721C61.3908 104.841 60.8838 104.767 60.4594 104.515C60.035 104.263 59.7277 103.853 59.6046 103.375C59.4815 102.897 59.5526 102.39 59.8025 101.964C60.0523 101.538 60.4605 101.228 60.9379 101.102L99.6115 91.1427C99.8496 91.08 100.098 91.0649 100.342 91.0984C100.586 91.1319 100.821 91.2133 101.033 91.3379C101.245 91.4625 101.431 91.6279 101.579 91.8245C101.728 92.0211 101.835 92.2451 101.897 92.4835C101.958 92.722 101.972 92.9702 101.937 93.214C101.902 93.4578 101.819 93.6922 101.694 93.9039C101.568 94.1156 101.401 94.3003 101.204 94.4475C101.007 94.5946 100.782 94.7013 100.543 94.7613Z" fill="#CCCCCC"/>
<path d="M109.578 98.9455L63.4415 110.826C63.2034 110.889 62.9552 110.904 62.7112 110.871C62.4673 110.837 62.2324 110.756 62.02 110.631C61.8076 110.507 61.6219 110.341 61.4737 110.145C61.3254 109.948 61.2175 109.724 61.1561 109.486C61.0947 109.247 61.081 108.999 61.1159 108.755C61.1507 108.511 61.2335 108.277 61.3593 108.065C61.4851 107.854 61.6515 107.669 61.8489 107.522C62.0463 107.375 62.2709 107.268 62.5097 107.208L108.647 95.3269C109.125 95.2065 109.632 95.2805 110.057 95.5327C110.481 95.7849 110.789 96.1949 110.912 96.673C111.035 97.1511 110.964 97.6585 110.714 98.0843C110.464 98.5101 110.056 98.8197 109.578 98.9455Z" fill="#CCCCCC"/>
<path d="M46.0852 116.715C49.7322 116.715 52.6888 113.758 52.6888 110.111C52.6888 106.464 49.7322 103.508 46.0852 103.508C42.4381 103.508 39.4816 106.464 39.4816 110.111C39.4816 113.758 42.4381 116.715 46.0852 116.715Z" fill="#CCCCCC"/>
<path d="M96.431 77.4796L45.0683 90.7011C43.5839 91.0814 42.0092 90.8574 40.6898 90.0782C39.3704 89.2989 38.4139 88.0281 38.0303 86.5446L27.267 44.7303C26.887 43.246 27.1112 41.6717 27.8904 40.3526C28.6696 39.0334 29.9402 38.0772 31.4235 37.6936L82.7858 24.4721C84.2702 24.0918 85.8449 24.3158 87.1643 25.095C88.4838 25.8742 89.4402 27.145 89.8238 28.6286L100.587 70.4429C100.967 71.9271 100.743 73.5014 99.964 74.8206C99.1848 76.1397 97.9143 77.096 96.431 77.4796Z" fill="white"/>
<path d="M96.431 77.4796L45.0683 90.7011C43.5839 91.0814 42.0092 90.8574 40.6898 90.0782C39.3704 89.2989 38.4139 88.0281 38.0303 86.5446L27.267 44.7303C26.887 43.246 27.1112 41.6717 27.8904 40.3526C28.6696 39.0334 29.9402 38.0772 31.4235 37.6936L82.7858 24.4721C84.2702 24.0918 85.8449 24.3158 87.1643 25.095C88.4838 25.8742 89.4402 27.145 89.8238 28.6286L100.587 70.4429C100.967 71.9271 100.743 73.5014 99.964 74.8206C99.1848 76.1397 97.9143 77.096 96.431 77.4796ZM31.5928 38.3508C30.2841 38.6897 29.1631 39.5338 28.4759 40.6979C27.7887 41.8621 27.5912 43.2513 27.9269 44.5609L38.6905 86.3752C39.0293 87.684 39.8734 88.8049 41.0376 89.4922C42.2018 90.1794 43.591 90.3769 44.9006 90.0412L96.262 76.821C97.5707 76.4822 98.6916 75.6381 99.3789 74.4739C100.066 73.3098 100.264 71.9205 99.9279 70.611L89.1653 28.7966C88.8264 27.4879 87.9823 26.367 86.8182 25.6797C85.654 24.9925 84.2647 24.795 82.9552 25.1307L31.5928 38.3508Z" fill="#E6E6E6"/>
<path d="M80.1795 38.5306L54.2582 45.2032C54.0317 45.2665 53.7895 45.2414 53.5807 45.133C53.372 45.0246 53.2121 44.841 53.1335 44.6193C53.0969 44.5034 53.0843 44.3813 53.0965 44.2604C53.1087 44.1395 53.1453 44.0223 53.2043 43.9161C53.2633 43.8098 53.3433 43.7167 53.4394 43.6424C53.5355 43.568 53.6458 43.5141 53.7635 43.4838L80.1503 36.6914C81.2163 37.2316 80.9357 38.3362 80.1798 38.5309L80.1795 38.5306Z" fill="#F2F2F2"/>
<path d="M81.3491 43.0765L55.4279 49.7491C55.2013 49.8124 54.9592 49.7873 54.7504 49.6789C54.5416 49.5705 54.3817 49.3869 54.3031 49.1652C54.2665 49.0493 54.2539 48.9272 54.2661 48.8063C54.2783 48.6854 54.315 48.5682 54.3739 48.462C54.4329 48.3557 54.5129 48.2626 54.609 48.1883C54.7052 48.1139 54.8154 48.06 54.9331 48.0297L81.3199 41.2373C82.386 41.7775 82.1054 42.8821 81.3495 43.0768L81.3491 43.0765Z" fill="#F2F2F2"/>
<path d="M50.4909 53.782L42.5798 55.8177C42.4519 55.8507 42.3187 55.8581 42.1879 55.8396C42.0571 55.8211 41.9312 55.777 41.8174 55.7098C41.7037 55.6426 41.6043 55.5537 41.5249 55.448C41.4455 55.3424 41.3877 55.2222 41.3548 55.0942L38.9515 45.7607C38.9186 45.6327 38.9111 45.4995 38.9296 45.3687C38.9482 45.2379 38.9923 45.112 39.0594 44.9983C39.1266 44.8845 39.2156 44.7851 39.3212 44.7057C39.4268 44.6263 39.547 44.5685 39.675 44.5356L47.586 42.4992C47.8444 42.4331 48.1184 42.4721 48.3481 42.6077C48.5777 42.7434 48.7442 42.9645 48.811 43.2227L51.2143 52.5586C51.2473 52.6865 51.2547 52.8197 51.2362 52.9505C51.2177 53.0813 51.1736 53.2072 51.1064 53.321C51.0392 53.4347 50.9503 53.5341 50.8447 53.6135C50.739 53.6929 50.6188 53.7507 50.4909 53.7836V53.782Z" fill="#6E679D"/>
<path d="M83.671 52.4069L44.1094 62.5904C43.8828 62.6537 43.6407 62.6286 43.4319 62.5202C43.2231 62.4118 43.0633 62.2282 42.9846 62.0065C42.9481 61.8906 42.9355 61.7685 42.9476 61.6476C42.9598 61.5267 42.9965 61.4095 43.0555 61.3033C43.1144 61.197 43.1944 61.1039 43.2906 61.0295C43.3867 60.9552 43.497 60.9013 43.6147 60.871L83.6417 50.5674C84.7078 51.1075 84.4269 52.2122 83.671 52.4069Z" fill="#F2F2F2"/>
<path d="M84.8426 56.9544L45.2804 67.1383C45.0538 67.2015 44.8117 67.1764 44.6029 67.068C44.3941 66.9596 44.2343 66.776 44.1556 66.5543C44.119 66.4384 44.1065 66.3163 44.1186 66.1954C44.1308 66.0745 44.1675 65.9574 44.2265 65.8511C44.2854 65.7448 44.3654 65.6517 44.4616 65.5774C44.5577 65.5031 44.668 65.4491 44.7857 65.4188L84.8127 55.1152C85.8788 55.6554 85.5982 56.76 84.8423 56.9547L84.8426 56.9544Z" fill="#F2F2F2"/>
<path d="M86.012 61.5006L46.4505 71.6842C46.2239 71.7474 45.9818 71.7223 45.773 71.6139C45.5642 71.5055 45.4043 71.3219 45.3257 71.1002C45.2891 70.9843 45.2765 70.8622 45.2887 70.7413C45.3009 70.6204 45.3376 70.5033 45.3965 70.397C45.4555 70.2907 45.5355 70.1976 45.6316 70.1233C45.7278 70.049 45.8381 69.995 45.9557 69.9648L85.9825 59.6611C87.0485 60.2013 86.7679 61.3059 86.012 61.5006Z" fill="#F2F2F2"/>
<path d="M87.1829 66.0485L47.621 76.232C47.3944 76.2953 47.1523 76.2702 46.9435 76.1618C46.7347 76.0534 46.5749 75.8698 46.4962 75.6481C46.4597 75.5322 46.4471 75.4101 46.4592 75.2892C46.4714 75.1683 46.5081 75.0511 46.5671 74.9449C46.626 74.8386 46.706 74.7455 46.8022 74.6712C46.8983 74.5968 47.0086 74.5429 47.1263 74.5126L87.1533 64.209C88.2191 64.7491 87.9388 65.8538 87.1829 66.0485Z" fill="#F2F2F2"/>
<path d="M88.3526 70.5934L48.7911 80.777C48.5645 80.8402 48.3223 80.8151 48.1136 80.7067C47.9048 80.5983 47.7449 80.4147 47.6663 80.193C47.6297 80.0771 47.6171 79.955 47.6293 79.8341C47.6415 79.7132 47.6782 79.596 47.7371 79.4898C47.7961 79.3835 47.8761 79.2904 47.9722 79.2161C48.0684 79.1417 48.1786 79.0878 48.2963 79.0575L88.3234 68.7539C89.3891 69.2941 89.1085 70.3987 88.3526 70.5934Z" fill="#F2F2F2"/>
<path d="M46.5721 112.427C46.4283 112.464 46.2763 112.453 46.139 112.397L46.1306 112.393L44.3317 111.63C44.2483 111.595 44.1728 111.543 44.1093 111.479C44.0459 111.414 43.9958 111.338 43.9619 111.254C43.928 111.17 43.911 111.08 43.9119 110.989C43.9127 110.899 43.9314 110.809 43.9669 110.726C44.0023 110.642 44.0538 110.567 44.1185 110.503C44.1831 110.44 44.2596 110.39 44.3436 110.356C44.4276 110.322 44.5175 110.305 44.6081 110.306C44.6986 110.307 44.7882 110.325 44.8715 110.361L46.0372 110.857L47.5645 107.263C47.6361 107.095 47.7715 106.962 47.9411 106.894C48.1107 106.825 48.3004 106.827 48.4687 106.899L48.4596 106.922L48.469 106.898C48.6372 106.97 48.7701 107.106 48.8385 107.275C48.9069 107.445 48.9051 107.635 48.8337 107.803L47.0367 112.028C46.995 112.125 46.9314 112.212 46.8509 112.281C46.7704 112.349 46.6751 112.399 46.5725 112.425L46.5721 112.427Z" fill="white"/>
<path d="M208.032 146.21L121.929 129.473C119.009 128.902 116.436 127.197 114.772 124.73C113.109 122.264 112.492 119.239 113.057 116.318L132.712 15.1969C133.283 12.2777 134.989 9.70403 137.455 8.04068C139.921 6.37732 142.946 5.76008 145.867 6.32437L225.972 21.8952L240.347 38.761L221.186 137.336C220.616 140.256 218.91 142.83 216.444 144.493C213.978 146.157 210.953 146.774 208.032 146.21Z" fill="#E6E6E6"/>
<path d="M145.25 9.49518C143.171 9.09336 141.017 9.53292 139.26 10.7174C137.504 11.9019 136.29 13.7346 135.883 15.8134L116.227 116.935C115.826 119.014 116.265 121.169 117.45 122.925C118.634 124.681 120.467 125.895 122.546 126.302L208.649 143.039C210.728 143.44 212.883 143.001 214.639 141.816C216.395 140.632 217.609 138.799 218.016 136.72L236.88 39.6726L224.247 24.8505L145.25 9.49518Z" fill="white"/>
<path d="M208.891 52.3799L169.689 44.7599C169.203 44.6653 168.774 44.3814 168.497 43.9706C168.22 43.5598 168.117 43.0558 168.212 42.5694C168.306 42.083 168.59 41.654 169.001 41.3769C169.412 41.0998 169.916 40.9973 170.402 41.0918L209.605 48.712C210.091 48.8066 210.52 49.0905 210.797 49.5013C211.074 49.9121 211.177 50.4161 211.082 50.9026C210.988 51.389 210.704 51.8179 210.293 52.095C209.882 52.3721 209.377 52.4744 208.891 52.3799Z" fill="#92C2C2"/>
<path d="M215.253 60.0399L168.486 50.9493C168 50.8548 167.571 50.5709 167.294 50.1601C167.017 49.7493 166.914 49.2452 167.009 48.7588C167.103 48.2724 167.387 47.8435 167.798 47.5664C168.209 47.2893 168.713 47.1868 169.199 47.2813L215.966 56.3719C216.452 56.4664 216.881 56.7503 217.158 57.1611C217.436 57.5719 217.538 58.076 217.444 58.5624C217.349 59.0488 217.065 59.4777 216.654 59.7548C216.244 60.0319 215.739 60.1344 215.253 60.0399Z" fill="#629DB7"/>
<path d="M204.212 76.4499L165.011 68.8301C164.525 68.7356 164.021 68.8381 163.61 69.1152C163.2 69.3922 162.916 69.8211 162.821 70.3075C162.727 70.7939 162.829 71.2979 163.106 71.7086C163.383 72.1194 163.812 72.4033 164.299 72.4978L203.499 80.1176C203.983 80.205 204.481 80.0985 204.886 79.8211C205.292 79.5437 205.572 79.1178 205.665 78.6356C205.759 78.1534 205.659 77.6536 205.387 77.2445C205.115 76.8355 204.693 76.55 204.212 76.4499Z" fill="#CCCCCC"/>
<path d="M210.575 84.111L163.808 75.0205C163.566 74.9701 163.316 74.9683 163.073 75.0153C162.83 75.0622 162.599 75.1569 162.393 75.2939C162.187 75.4309 162.01 75.6075 161.873 75.8134C161.736 76.0192 161.641 76.2503 161.594 76.4932C161.547 76.7361 161.548 76.9859 161.598 77.2282C161.648 77.4705 161.746 77.7004 161.886 77.9046C162.025 78.1088 162.204 78.2833 162.412 78.4178C162.62 78.5523 162.852 78.6442 163.095 78.6882L209.861 87.7786C210.104 87.829 210.353 87.8308 210.596 87.7839C210.839 87.737 211.071 87.6422 211.277 87.5052C211.483 87.3682 211.659 87.1917 211.797 86.9858C211.934 86.7799 212.029 86.5488 212.076 86.306C212.123 86.0631 212.122 85.8132 212.072 85.5709C212.022 85.3287 211.924 85.0987 211.784 84.8945C211.644 84.6903 211.465 84.5159 211.258 84.3814C211.05 84.2468 210.818 84.155 210.575 84.111Z" fill="#CCCCCC"/>
<path d="M198.107 107.857L158.906 100.237C158.419 100.143 157.99 99.859 157.713 99.4482C157.436 99.0374 157.333 98.5333 157.428 98.0469C157.523 97.5605 157.806 97.1316 158.217 96.8545C158.628 96.5774 159.132 96.4748 159.619 96.5694L198.821 104.19C199.307 104.284 199.736 104.568 200.013 104.979C200.291 105.39 200.393 105.894 200.299 106.38C200.204 106.867 199.92 107.295 199.509 107.573C199.098 107.85 198.594 107.952 198.108 107.858L198.107 107.857Z" fill="#CCCCCC"/>
<path d="M204.469 115.518L157.702 106.428C157.216 106.333 156.787 106.049 156.51 105.639C156.233 105.228 156.13 104.724 156.225 104.237C156.319 103.751 156.603 103.322 157.014 103.045C157.425 102.768 157.929 102.665 158.415 102.76L205.182 111.85C205.669 111.945 206.098 112.229 206.375 112.64C206.652 113.05 206.754 113.554 206.66 114.041C206.565 114.527 206.281 114.956 205.87 115.233C205.46 115.51 204.956 115.613 204.469 115.518Z" fill="#CCCCCC"/>
<path d="M151.86 49.33C155.44 50.0259 158.906 47.6878 159.602 44.1078C160.298 40.5277 157.96 37.0614 154.38 36.3655C150.8 35.6696 147.333 38.0077 146.637 41.5877C145.942 45.1678 148.28 48.6341 151.86 49.33Z" fill="#CCCCCC"/>
<path d="M151.997 45.1953C151.851 45.1673 151.718 45.0925 151.619 44.9823L151.612 44.9755L150.315 43.5138C150.197 43.3764 150.137 43.198 150.149 43.017C150.162 42.836 150.245 42.6672 150.38 42.5469C150.516 42.4267 150.694 42.3648 150.875 42.3746C151.056 42.3845 151.226 42.4652 151.348 42.5994L152.188 43.548L155.111 40.9592C155.178 40.8992 155.257 40.8531 155.343 40.8236C155.429 40.7941 155.519 40.7817 155.61 40.7872C155.7 40.7927 155.788 40.816 155.87 40.8557C155.951 40.8954 156.024 40.9507 156.084 41.0185L156.066 41.0352L156.085 41.018C156.206 41.155 156.268 41.3344 156.256 41.5169C156.245 41.6994 156.162 41.8701 156.025 41.9913L152.587 45.0351C152.507 45.1051 152.413 45.156 152.311 45.1836C152.208 45.2112 152.101 45.2149 151.997 45.1944L151.997 45.1953Z" fill="white"/>
<path d="M154.876 71.9748C154.711 72.8262 154.38 73.6368 153.901 74.3602C153.423 75.0835 152.807 75.7056 152.088 76.1907C151.369 76.6759 150.561 77.0147 149.712 77.1878C148.862 77.3609 147.986 77.3649 147.135 77.1995C147.079 77.1898 147.023 77.1767 146.969 77.1604C145.701 76.88 144.544 76.2317 143.642 75.2969C142.74 74.362 142.135 73.182 141.9 71.9045C141.666 70.627 141.814 69.3088 142.325 68.1148C142.836 66.9208 143.688 65.904 144.774 65.1918C145.86 64.4795 147.132 64.1033 148.431 64.1104C149.729 64.1174 150.997 64.5073 152.076 65.2313C153.154 65.9553 153.995 66.9812 154.493 68.1807C154.991 69.3802 155.124 70.6999 154.876 71.9748Z" fill="#CCCCCC"/>
<path d="M141.075 104.808C144.655 105.503 148.122 103.165 148.818 99.5853C149.514 96.0053 147.176 92.5389 143.595 91.843C140.015 91.1471 136.549 93.4852 135.853 97.0653C135.157 100.645 137.495 104.112 141.075 104.808Z" fill="#CCCCCC"/>
<path d="M239.932 39.1333L226.606 36.543C225.633 36.3539 224.775 35.7861 224.221 34.9645C223.667 34.1429 223.462 33.1348 223.651 32.162L225.564 22.32C225.572 22.2769 225.593 22.2371 225.623 22.205C225.653 22.173 225.691 22.15 225.734 22.1388C225.776 22.1276 225.821 22.1286 225.863 22.1417C225.905 22.1547 225.942 22.1793 225.97 22.2126L240.154 38.7511C240.185 38.7879 240.204 38.8336 240.209 38.8819C240.213 38.9301 240.202 38.9786 240.178 39.0205C240.154 39.0624 240.117 39.0956 240.073 39.1157C240.029 39.1357 239.979 39.1415 239.932 39.1323L239.932 39.1333Z" fill="#CCCCCC"/>
<path d="M160.944 137.54C160.534 138.212 159.873 138.694 159.107 138.88C158.341 139.066 157.533 138.939 156.861 138.529L122.195 117.385C121.522 116.974 121.04 116.313 120.855 115.548C120.669 114.782 120.795 113.974 121.206 113.301C121.616 112.628 122.277 112.146 123.043 111.96C123.809 111.775 124.617 111.901 125.289 112.312L159.955 133.456C160.627 133.866 161.109 134.527 161.295 135.293C161.48 136.059 161.354 136.867 160.944 137.54Z" fill="#3F3D56"/>
<path d="M126.279 116.396C123.831 120.41 120.248 123.607 115.983 125.584C111.718 127.561 106.962 128.229 102.317 127.504C97.6728 126.778 93.3477 124.691 89.8889 121.507C86.4302 118.324 83.9933 114.186 82.8862 109.617C81.7792 105.048 82.0518 100.254 83.6696 95.8399C85.2874 91.4261 88.1777 87.5911 91.975 84.8199C95.7724 82.0487 100.306 80.4658 105.003 80.2713C109.7 80.0768 114.349 81.2795 118.363 83.7273C121.028 85.3526 123.346 87.4868 125.186 90.0082C127.026 92.5296 128.352 95.3888 129.087 98.4224C129.822 101.456 129.952 104.605 129.47 107.689C128.988 110.773 127.904 113.732 126.279 116.396ZM90.7681 94.7349C88.9322 97.745 88.0301 101.232 88.1759 104.755C88.3218 108.277 89.509 111.678 91.5874 114.526C93.6658 117.374 96.542 119.542 99.8524 120.755C103.163 121.968 106.759 122.173 110.185 121.343C113.612 120.512 116.715 118.684 119.103 116.09C121.491 113.496 123.056 110.252 123.6 106.769C124.145 103.285 123.644 99.7187 122.161 96.5199C120.678 93.3211 118.28 90.6338 115.27 88.798C111.233 86.3362 106.384 85.5786 101.789 86.692C97.1943 87.8054 93.2299 90.6985 90.7681 94.7349Z" fill="#3F3D56"/>
<path d="M99.7016 121.257C109.359 124.583 119.884 119.449 123.209 109.792C126.535 100.134 121.402 89.6092 111.744 86.2838C102.086 82.9585 91.5614 88.0918 88.2361 97.7494C84.9107 107.407 90.044 117.932 99.7016 121.257Z" fill="#5284A6"/>
<path d="M104.335 113.092V111.153H106.274V113.092H104.335ZM104.335 105.334V95.6368H106.274V105.334H104.335Z" stroke="#FFF7F7" stroke-width="1.93952"/>
</g>
<defs>
<clipPath id="clip0_20_352">
<rect width="242.983" height="148.35" fill="white"/>
</clipPath>
</defs>
</svg>
