<svg width="38" height="38" viewBox="0 0 38 38" fill="none" xmlns="http://www.w3.org/2000/svg">
<path d="M26.8119 14.1948C26.008 7.97339 20.6904 3.16699 14.2502 3.16699C7.25455 3.16699 1.5835 8.83805 1.5835 15.8337C1.5835 18.83 2.62386 21.5832 4.36304 23.7521C5.64239 25.3474 6.33402 27.1152 6.33389 28.985L6.3335 34.8337H20.5835L20.5851 30.0837H23.7502C25.4991 30.0837 26.9168 28.6659 26.9168 26.917V22.2794L30.0191 20.9505C30.5625 20.7178 30.6098 20.1668 30.3751 19.7978L26.8119 14.1948ZM4.75016 15.8337C4.75016 10.587 9.00346 6.33366 14.2502 6.33366C19.0386 6.33366 23.0638 9.89839 23.6712 14.6005L23.7616 15.2995L26.2039 19.1398L23.7502 20.1908V26.917H17.4195L17.4179 31.667H9.50037L9.50056 28.9853C9.50073 26.3901 8.56544 23.9308 6.83348 21.771C5.49145 20.0974 4.75016 18.0264 4.75016 15.8337ZM33.4932 28.6625L30.8582 26.9058C32.3692 24.6436 33.2502 21.9249 33.2502 19.0005C33.2502 16.0759 32.3692 13.3572 30.8582 11.0951L33.4932 9.33837C35.3402 12.1031 36.4168 15.426 36.4168 19.0005C36.4168 22.5749 35.3402 25.8976 33.4932 28.6625Z" fill="#3E6871"/>
</svg>
